<svg width="478" height="334" viewBox="0 0 478 334" fill="none" xmlns="http://www.w3.org/2000/svg">
<rect width="15.2793" height="147.263" transform="matrix(0.986787 0.162025 -0.00274687 0.999996 233.071 22.3696)" fill="#D9D9D9"/>
<rect width="15.2793" height="195.732" transform="matrix(0.317981 0.948097 -0.885329 0.464965 195.287 219.911)" fill="#D9D9D9"/>
<rect width="15.2793" height="196.662" transform="matrix(0.611739 -0.79106 0.878415 0.477899 277.49 231.194)" fill="#D9D9D9"/>
<path d="M234.485 6.13862C236.997 2.74837 241.422 2.44795 244.369 5.46764V5.46764C247.315 8.48734 247.668 13.6836 245.157 17.0739L17.7329 324.052C14.3876 328.567 8.49404 328.967 4.56922 324.945V324.945C2.60042 322.928 2.36474 319.456 4.04281 317.191L234.485 6.13862Z" fill="#D9D9D9"/>
<rect width="16.6462" height="476.984" rx="8.32308" transform="matrix(-0.00169744 0.999999 -0.999997 -0.00234788 478 317.354)" fill="#D9D9D9"/>
<path d="M234.813 17.0317C232.318 13.6329 232.694 8.4426 235.653 5.43882V5.43882C238.612 2.43504 243.032 2.75527 245.527 6.15406L474.766 318.46C476.433 320.731 476.181 324.199 474.205 326.206V326.206C470.264 330.207 464.376 329.78 461.053 325.253L234.813 17.0317Z" fill="#D9D9D9"/>
<circle cx="239" cy="216" r="50" fill="#D9D9D9"/>
<rect x="235" y="211" width="10" height="26" rx="5" fill="black"/>
<circle cx="240" cy="206" r="11" fill="black"/>
</svg>
